<svg width="32" height="17" viewBox="0 0 32 17" fill="none" xmlns="http://www.w3.org/2000/svg">
<path fill-rule="evenodd" clip-rule="evenodd" d="M8.44244 1.15424C8.34071 1.05226 8.21987 0.971349 8.08683 0.916142C7.95378 0.860936 7.81116 0.83252 7.66712 0.83252C7.52308 0.83252 7.38045 0.860936 7.24741 0.916142C7.11437 0.971349 6.99352 1.05226 6.8918 1.15424L0.321283 7.72475C0.219302 7.82648 0.138391 7.94732 0.0831852 8.08036C0.0279789 8.21341 -0.000437737 8.35603 -0.000437737 8.50008C-0.000437737 8.64412 0.0279789 8.78674 0.0831852 8.91978C0.138391 9.05283 0.219302 9.17367 0.321283 9.2754L6.8918 15.8459C7.09742 16.0515 7.37632 16.1671 7.66712 16.1671C7.95792 16.1671 8.23681 16.0515 8.44244 15.8459C8.64807 15.6403 8.76359 15.3614 8.76359 15.0706C8.76359 14.7798 8.64807 14.5009 8.44244 14.2953L2.64505 8.50008L8.44244 2.70488C8.54442 2.60316 8.62533 2.48231 8.68054 2.34927C8.73574 2.21623 8.76416 2.0736 8.76416 1.92956C8.76416 1.78552 8.73574 1.64289 8.68054 1.50985C8.62533 1.37681 8.54442 1.25597 8.44244 1.15424Z" fill="black"/>
<path fill-rule="evenodd" clip-rule="evenodd" d="M31.7295 8.49987C31.7295 8.20944 31.6141 7.9309 31.4087 7.72553C31.2034 7.52016 30.9248 7.40479 30.6344 7.40479H2.19178C1.90135 7.40479 1.62281 7.52016 1.41744 7.72553C1.21207 7.9309 1.0967 8.20944 1.0967 8.49987C1.0967 8.79031 1.21207 9.06885 1.41744 9.27421C1.62281 9.47958 1.90135 9.59496 2.19178 9.59496H30.6344C30.9248 9.59496 31.2034 9.47958 31.4087 9.27421C31.6141 9.06885 31.7295 8.79031 31.7295 8.49987Z" fill="black"/>
</svg>
